<?xml version="1.0" encoding="utf-8"?>
<!-- Generator: Adobe Illustrator 22.0.1, SVG Export Plug-In . SVG Version: 6.00 Build 0)  -->
<svg version="1.1" id="Layer_1" xmlns="http://www.w3.org/2000/svg" xmlns:xlink="http://www.w3.org/1999/xlink" x="0px" y="0px"
	 viewBox="0 0 600 300" style="enable-background:new 0 0 600 300;" xml:space="preserve">
<style type="text/css">
	.st0{fill:#0c2c37;}
	path{
		fill: #0c2c37;
	}
</style>
<g>
	<path d="M27,183.4c-3.8-3.8-6.7-9.5-8.2-17.1c-1.7-7.7-2.5-17.3-2.5-29.5V91.6c0-6.1-0.6-10.6-1.5-13.5c-1-2.9-2.9-4.3-5.7-4.3H7
		v-3.6h9.4c2.5,0,4.4,0.5,5.7,1.6s2.1,3.2,2.7,6.1c0.6,2.9,0.8,7.4,0.8,13.5V142c0,13.1,1.3,23,4.2,29.7s7.5,10.1,14.1,10.1
		c5.2,0,9.4-1.6,12.4-4.7c3.1-3.2,5.3-8.1,6.5-14.6c1.3-6.5,1.9-15.1,1.9-25.9V70h4.2V137c0,12.4-0.8,22.3-2.3,29.7
		s-4.2,13.1-8,16.9s-9.2,5.6-16,5.6C36.2,189.3,30.8,187.2,27,183.4z"/>
	<path d="M92.9,94.3v93.2h-4.2V91.6c0-5.6-0.8-10.1-2.1-13.1c-1.3-3.2-3.8-4.5-7.3-4.5h-1v-3.6h6.7c3.2,0,5.9,0.9,8,2.7
		c2.3,1.8,4.2,4.5,5.9,7.9l36.3,77.2V70.4h4.2v118.9h-2.1L92.9,94.3z"/>
	<path d="M161.1,185.9c-1.3-1.1-2.1-3.2-2.7-6.1c-0.6-2.9-0.8-7.4-0.8-13.5V70.4h9.4v95.9c0,6.1,0.6,10.6,1.5,13.3
		c1,2.9,2.9,4.3,5.7,4.3h2.1v3.6H167C164.4,187.5,162.5,187,161.1,185.9z"/>
	<path d="M224.4,215.8c-7.1-5.4-13.6-14.4-19.7-27.2c-7.1-3.6-12.6-10.8-16.6-21.6c-4-10.8-6.1-23.6-6.1-38c0-11.5,1.3-22.1,4-31.5
		c2.7-9.5,6.3-16.9,11.3-22.3c5-5.4,10.5-8.1,17-8.1s12,2.7,17,8.1c5,5.4,8.6,12.8,11.3,22.3c2.7,9.5,4,20,4,31.5
		c0,14.9-2.1,27.9-6.3,38.7c-4.2,11-9.9,18-17.2,21.4c1,5.6,2.9,10.8,5.7,15.8c2.7,4.7,5.9,8.6,9.4,11.3c3.4,2.7,6.7,4.3,9.6,4.3
		v3.6C239.1,223.9,231.4,221.2,224.4,215.8z M225.9,177.1c3.2-4.5,5.7-10.8,7.5-19.1c1.7-8.3,2.7-18,2.7-29.3
		c0-11.3-1-20.9-2.7-29.3c-1.7-8.3-4.2-14.6-7.5-19.1c-3.2-4.5-7.3-6.8-11.7-6.8c-4.6,0-8.4,2.3-11.7,6.8
		c-3.2,4.5-5.7,10.8-7.5,19.1c-1.7,8.3-2.7,18-2.7,29.3c0,11.3,1,20.9,2.7,29.3c1.7,8.3,4.2,14.6,7.5,19.1c3.2,4.5,7.3,6.8,11.7,6.8
		C218.6,183.9,222.6,181.6,225.9,177.1z"/>
	<path d="M272.1,183.4c-3.8-3.8-6.7-9.5-8.2-17.1c-1.7-7.7-2.5-17.3-2.5-29.5V91.6c0-6.1-0.6-10.6-1.5-13.5c-1-2.9-2.9-4.3-5.7-4.3
		h-2.1v-3.6h9.4c2.5,0,4.4,0.5,5.7,1.6c1.3,1.1,2.1,3.2,2.7,6.1c0.6,2.9,0.8,7.4,0.8,13.5V142c0,13.1,1.3,23,4.2,29.7
		c2.9,6.8,7.5,10.1,14.1,10.1c5.2,0,9.4-1.6,12.4-4.7c3.1-3.2,5.3-8.1,6.5-14.6c1.3-6.5,1.9-15.1,1.9-25.9V70h4.2V137
		c0,12.4-0.8,22.3-2.3,29.7c-1.5,7.4-4.2,13.1-8,16.9s-9.2,5.6-16,5.6C281.3,189.3,275.9,187.2,272.1,183.4z"/>
	<path d="M333.4,91.8c0-6.1-0.6-10.6-1.5-13.5c-1-2.9-2.9-4.3-5.7-4.3h-2.1v-3.6h44.1c5.9,0,8.8,4.7,8.8,14.2v13.3h-2.1
		c0-13.5-4.4-20.5-13-20.5h-19.3v46.1h28.1v7.2h-28.1v49.7h18.1c4.8,0,8.4-1.6,11.3-4.5c2.7-2.9,4.8-7.9,6.5-15.1l2.1,0.9l-3.6,16.9
		c-1.3,5.9-3.8,8.8-7.8,8.8h-35.7L333.4,91.8L333.4,91.8z"/>
	<path d="M398.2,59.8c0-8.1-0.6-14-1.9-17.8C394.9,38.2,11,33.9,7.1,33.9H4.5v-5l417.4,2.5c8.8,0,16.8,3.2,23.9,9.7
		c7.1,6.5,10.7,18.9,10.7,37.6c0,12.4-1.9,21.8-5.5,28.4c-3.6,6.5-7.8,11-12.4,13.3s-8.8,3.4-12.4,3.4h-15.3v63.9h-12.4V59.8H398.2z
		 M420.9,115.4c2.9,0,6.1-1.4,9.4-3.8c3.2-2.7,6.1-6.8,8.4-12.4c2.3-5.6,3.4-12.8,3.4-21.6S441,61.8,438.7,56
		c-2.3-5.6-5.2-9.9-8.4-12.4c-3.2-2.7-6.5-3.8-9.4-3.8c-3.2,0-6.7,0.9-10.3,2.5v73.4h10.3V115.4z"/>
	<path d="M471,104.6c0-8.1-0.6-14-1.9-17.8c-1.3-3.8-3.8-5.9-7.8-5.9h-1.3v-4.7H471c3.4,0,6.1,0.9,8,2.5c1.7,1.6,3.1,4.3,3.8,8.1
		c2.1-3.4,4.6-6.5,7.5-9c2.9-2.5,6.3-3.8,9.7-3.8c3.6,0,6.5,1.1,8.2,3.6c1.5,2,3.2,5.6,4.8,10.6l-5.5,7.2c-1-2.5-2.5-4.1-4.4-5.4
		c-1.9-1.1-4.2-1.8-6.7-1.8c-2.7,0-5.3,1.1-7.6,3.2c-2.3,2-4.2,5-5.5,8.6v7.2v80.4h-12.4v-82.8H471z"/>
	<path d="M533.8,182.1c-4.6-5.2-8-12.2-10.5-20.9c-2.5-8.8-3.6-18.7-3.6-29.3c0-10.8,1.1-20.5,3.6-29.3s5.9-15.8,10.5-20.9
		S544,74,550.1,74s11.7,2.5,16.2,7.7s8,12.2,10.5,20.9c2.5,8.8,3.6,18.7,3.6,29.3c0,10.8-1.1,20.5-3.6,29.3
		c-2.5,8.8-5.9,15.8-10.5,20.9c-4.6,5.2-10.1,7.7-16.2,7.7S538.4,187.2,533.8,182.1z M559.2,174c2.7-4.3,4.6-10.1,6.1-17.6
		c1.3-7.4,2.1-15.5,2.1-24.5s-0.8-17.1-2.1-24.5c-1.3-7.4-3.4-13.3-6.1-17.6c-2.7-4.3-5.7-6.3-9-6.3c-3.2,0-6.5,2-9,6.3
		c-2.7,4.3-4.6,10.1-6.1,17.6c-1.3,7.4-2.1,15.5-2.1,24.5s0.8,17.1,2.1,24.5c1.3,7.4,3.4,13.3,6.1,17.6c2.7,4.3,5.7,6.3,9,6.3
		C553.5,180.3,556.6,178.2,559.2,174z"/>
</g>
<path class="st0" d="M471.6,266.5c-6.9,5.2-13.8,2.9-21,3.4c0-5.2,0-10.1,0-15.1c0-11,0-22.3,0-33.3c0-5.2,0-10.1-4-10.6
	c-0.2,0-0.4-0.7-0.6-1.4c0-0.2,0-0.7,0.2-2c8.8,0.7,17.8-2.5,26.2,4.5c10.3,8.6,10.9,33.5,5,45.9
	C475.6,261.5,473.5,263.8,471.6,266.5 M470,219.2c-4-7-8.6-8.6-14.1-5c0,14.6,0,29.5,0,44.1c0,0.9-0.2,2,0,2.9
	c0.6,1.4,1.1,3.6,1.9,3.8c2.3,0.2,4.6,0.5,6.7-0.5C476.1,259.3,476.7,229.6,470,219.2z"/>
<path class="st0" d="M535.6,246c1-4.5,1.1-9,2.5-12.6c2.7-7.9,7.5-10.8,13.2-8.6c3.8,1.6,7.3,8.8,8,16.4c1.1,10.6,0.2,20.3-5.2,26.3
	c-6.9,7.4-16.6,1.8-17.8-14.6C535.9,250.9,535.7,248.7,535.6,246 M549.5,230.5c-2.7-2.3-4.8-0.7-6.1,3.4c-2.9,9-2.9,18.5,0.2,27.5
	c1.7,5.4,5.2,5.9,7.5,1.4C555.6,253.6,554.3,236.3,549.5,230.5z"/>
<path class="st0" d="M486.3,234.7c3.1-10.1,8.2-11.7,14.5-8.6c4.4,2.3,6.5,11.3,5.3,22.7c-5,0-9.9,0-14.9,0
	c-1,6.5,0.4,12.8,3.1,15.3c2.9,2.9,6.5,1.8,10.3-6.1c2.3,2.7,0.4,5.2-0.6,6.8c-2.7,4.5-5.9,6.8-9.7,5.6c-4.6-1.4-7.5-6.1-8.8-13.5
	C484.2,250,484.4,242.4,486.3,234.7 M499.6,234.3c-1-4.1-2.9-5.6-5.3-4.5c-2.3,1.1-3.8,8.1-3.4,14.4c3.1,0,6.1,0,9.7,0
	C500.4,241,500,238.1,499.6,234.3z"/>
<path class="st0" d="M523.9,271c-5.5,0.5-9.9-2.5-12.2-11.5c-2.3-9.7-2.1-19.4,1.3-28.1c2.7-6.5,12.6-9.2,16.2-4.7
	c2.9,3.6,1.9,9,2.1,15.1c-1-1.1-1.7-1.4-1.7-2c-1.5-7.7-3.1-10.1-6.5-10.1c-3.2,0.2-5.7,3.8-6.5,10.8c-0.4,5-0.6,10.4,0.2,15.3
	c0.8,5.2,2.7,9.5,6.3,10.1c2.7,0.5,5.2-1.8,8.6-7.4c0,1.8,0.2,4.3-0.4,5C529.1,266.2,526.6,268.5,523.9,271z"/>
<path class="st0" d="M569.4,227.1c2.7-0.7,5.2-1.6,7.6-2.3c2.7-0.7,4.4,1.4,5,6.1c-1.3,2.7-2.5,3.2-4.6,1.1
	c-3.2-3.2-6.5,0.9-6.5,7.2c0,9.9,0,19.8,0,30.2c-1.7,0-3.2,0-5.3,0c0-6.5,0-13.1,0-19.8c0-3.8,0.4-7.9-0.2-11.5
	c-0.6-4.1,0-10.1-4-10.4c-0.2,0-0.2-1.4-0.8-3.8C564,225.3,566.5,226.2,569.4,227.1z"/>
<path class="st0" d="M493.3,206.4c0.4-1.4,0.6-1.8,0.8-2.7c2.9-11.5,2.9-11.5,13-11c-2.9,5.4-5.3,10.6-8.4,15.1
	C498.1,208.8,495.2,207.3,493.3,206.4z"/>
</svg>
