<svg version="1.1" id="Layer_1" xmlns="http://www.w3.org/2000/svg" xmlns:xlink="http://www.w3.org/1999/xlink" x="0px"
	y="0px" width="100%" viewBox="0 0 400 400" enable-background="new 0 0 400 400" xml:space="preserve">

	<path fill="none" stroke-width="4px" opacity="1.000000" stroke="#0C2C37" d="
M63.043228,280.012512 
	C51.937241,271.892242 43.076668,262.226898 37.491421,249.912582 
	C34.152534,242.551010 31.933046,234.901352 31.951113,226.621307 
	C32.052555,180.127213 32.000000,133.632767 32.000000,87.138443 
	C32.000000,85.350243 32.000000,83.562050 32.000000,81.773849 
	C32.431381,81.552368 32.862762,81.330879 33.294140,81.109398 
	C34.888687,83.758911 36.964020,86.233589 38.001228,89.085793 
	C45.846550,110.659538 58.905853,128.146378 78.014511,140.998260 
	C81.969475,143.658234 84.138603,146.929871 84.093987,152.080170 
	C83.883232,176.408722 83.996941,200.740082 84.002228,225.070450 
	C84.003494,230.894684 86.477226,233.446762 94.163513,235.610382 
	C97.712433,236.609390 104.763496,234.089066 106.363388,230.901947 
	C107.049683,229.534775 106.973267,227.705948 106.976105,226.086411 
	C107.012329,205.422333 106.930832,184.757782 107.046684,164.094284 
	C107.077187,158.653641 107.341057,153.162628 108.189026,147.804108 
	C108.521141,145.705399 110.338577,143.272842 112.182518,142.069717 
	C131.977005,129.154419 145.148941,111.239403 153.120071,89.183472 
	C154.137161,86.369225 156.186356,83.927986 157.757401,81.313934 
	C158.171600,81.407249 158.585800,81.500565 159.000000,81.593880 
	C159.000000,83.303185 159.000000,85.012489 159.000000,86.721794 
	C159.000000,134.382645 159.256638,182.045486 158.885254,229.703445 
	C158.714844,251.571884 148.459732,268.269073 129.993942,280.038086 
	C120.008698,286.402100 108.881248,289.500397 97.407509,289.750031 
	C85.377190,290.011749 73.499260,287.653015 63.043228,280.012512 
z" />
	<path fill="none" stroke-width="4px" opacity="1.000000" stroke="#0C2C37" d="
M227.651215,166.307068 
	C223.033020,164.520081 217.512268,164.846909 215.818634,157.587906 
	C218.806015,156.102753 221.892105,154.009918 225.299545,152.966324 
	C245.516479,146.774582 258.730469,133.831467 261.728302,112.719185 
	C264.259644,94.892021 257.271637,80.176826 243.011856,68.969727 
	C234.951202,62.634686 225.605301,59.111752 215.700089,59.258087 
	C203.324188,59.440926 191.931732,63.781387 182.816177,72.713593 
	C177.605911,77.819061 172.548676,83.080681 166.458664,89.248138 
	C165.776260,86.499298 165.058212,84.938065 165.050980,83.373543 
	C164.970795,66.047714 164.879074,48.720200 165.045181,31.395586 
	C165.150482,20.413771 168.141953,16.689199 177.700989,12.932874 
	C211.584351,-0.381951 243.380753,4.770485 272.881012,24.656242 
	C294.260376,39.067825 308.946136,59.084152 313.500427,84.779045 
	C315.513123,96.134338 314.467224,108.147018 313.898499,119.816856 
	C313.098419,136.234299 307.651550,151.317337 297.999329,164.654266 
	C294.341797,169.708069 289.836365,174.154495 285.651093,178.818283 
	C281.950531,182.941910 277.556091,181.981750 272.994263,180.538254 
	C258.016174,175.798737 243.002579,171.171371 227.651215,166.307068 
z" />
	<path fill="#0C2C37" opacity="1.000000" stroke="none" d="
M225.814758,294.055054 
	C215.490829,298.550842 205.017319,296.568695 194.000000,297.005249 
	C194.000000,292.440796 194.000000,288.189148 194.000000,283.937500 
	C194.000000,274.293396 193.999023,264.649323 194.000427,255.005234 
	C194.001068,250.596832 194.093735,246.144073 187.906784,245.795181 
	C187.625473,245.779312 187.307144,245.117950 187.147919,244.702835 
	C187.043701,244.431152 187.195541,244.061249 187.313736,243.024521 
	C200.587265,243.527573 214.171448,240.899384 226.950043,247.012650 
	C242.540497,254.471130 243.418060,276.149567 234.431793,286.939087 
	C232.156693,289.670746 228.960709,291.635406 225.814758,294.055054 
M223.493301,252.994949 
	C217.392731,246.955185 210.348236,245.505203 202.000015,248.663025 
	C202.000015,261.423126 201.999863,274.201080 202.000397,286.979034 
	C202.000427,287.810303 201.706497,288.818054 202.071075,289.435791 
	C202.812119,290.691467 203.841446,292.625549 204.873657,292.705292 
	C208.279526,292.968445 211.883957,293.097443 215.154861,292.265900 
	C232.946274,287.742828 233.774811,261.944031 223.493301,252.994949 
z" />
	<path fill="#0C2C37" opacity="1.000000" stroke="none" d="
M323.349060,276.288391 
	C324.674316,272.399353 325.202881,268.535980 327.016785,265.421051 
	C331.044556,258.504333 338.311829,256.112610 346.923096,258.076935 
	C352.593628,259.370422 357.847961,265.742828 359.026276,272.341766 
	C360.666229,281.526276 359.439423,289.969421 351.052185,295.226776 
	C340.682587,301.726685 325.779816,296.765961 323.996338,282.452454 
	C323.754822,280.513855 323.424652,278.586304 323.349060,276.288391 
M344.420532,262.831024 
	C340.388428,260.828125 337.115173,262.338287 335.161957,265.769592 
	C330.693878,273.618958 330.798737,281.758636 335.328400,289.572968 
	C338.053040,294.273346 343.278564,294.691162 346.699188,290.773773 
	C353.550171,282.927734 351.803833,267.765717 344.420532,262.831024 
z" />
	<path fill="#0C2C37" opacity="1.000000" stroke="none" d="
M248.208496,266.501251 
	C252.959366,257.763977 260.554291,256.256958 270.176453,259.050598 
	C276.901093,261.003021 279.968384,268.811768 278.448639,278.877197 
	C270.936249,278.877197 263.349213,278.877197 255.872559,278.877197 
	C254.413452,284.576447 256.578613,289.997925 260.594604,292.261841 
	C264.989136,294.739197 270.459778,293.765808 276.219391,287.038544 
	C279.592621,289.476776 276.921600,291.512024 275.457764,292.895782 
	C271.341736,296.786621 266.369781,298.716431 260.578003,297.771149 
	C253.717896,296.651520 249.273041,292.428284 247.209518,286.106171 
	C245.126724,279.724945 245.350311,273.166199 248.208496,266.501251 
M268.615662,266.160034 
	C267.057465,262.591461 264.201172,261.242188 260.629242,262.281006 
	C257.194855,263.279816 254.781326,269.411194 255.430527,274.732788 
	C260.109772,274.732788 264.822266,274.732788 270.244812,274.732788 
	C269.767426,271.900543 269.347382,269.408356 268.615662,266.160034 
z" />

	<path fill="#0C2C37" opacity="1.000000" stroke="none" d="
M305.580811,297.953613 
	C297.047455,298.370087 290.422180,295.853119 287.031128,287.960236 
	C283.413574,279.540161 283.845184,271.119507 289.112122,263.559265 
	C293.090027,257.849304 308.130890,255.544037 313.835449,259.510620 
	C318.293823,262.610687 316.876343,267.372894 316.891357,272.560333 
	C315.483002,271.648987 314.366486,271.342590 314.154327,270.725281 
	C311.841217,263.995667 309.493713,261.880798 304.160034,262.000977 
	C299.264038,262.111298 295.442261,265.261383 294.416412,271.420929 
	C293.693848,275.759796 293.577271,280.507599 294.582489,284.742279 
	C295.653320,289.253265 298.698425,292.923431 304.078644,293.559021 
	C308.121338,294.036652 312.033691,292.051697 317.231201,287.201599 
	C317.100922,288.683167 317.529999,290.949799 316.743439,291.510223 
	C313.360352,293.920593 309.620239,295.829803 305.580811,297.953613 
z" />
	<path fill="#0C2C37" opacity="1.000000" stroke="none" d="
M374.725800,259.906738 
	C378.819183,259.346436 382.534973,258.620483 386.270142,258.014130 
	C390.390503,257.345276 392.910034,259.138123 393.828918,263.198303 
	C391.772705,265.490967 389.990356,265.988678 386.828583,264.222717 
	C381.944550,261.494812 377.015991,264.989349 377.004669,270.518341 
	C376.987030,279.146301 377.000031,287.774323 377.000031,296.697632 
	C374.317108,296.697632 372.055573,296.697632 369.000000,296.697632 
	C369.000000,291.055054 369.004639,285.298737 368.998260,279.542389 
	C368.994568,276.211151 369.500977,272.767181 368.819946,269.578522 
	C368.048584,265.966949 368.846100,260.702087 362.599182,260.632782 
	C362.380890,260.630371 362.174683,259.543060 361.374542,257.345856 
	C366.384705,258.290619 370.370728,259.042236 374.725800,259.906738 
z" />

	<path fill="#0C2C37" opacity="1.000000" stroke="none" d="
M260.089355,253.155334 
	C260.351227,252.314575 260.656677,251.899338 260.808777,251.433990 
	C263.295410,243.827423 263.291046,243.825989 271.801941,244.164398 
	C269.349091,247.719696 267.301697,251.143250 264.713287,254.091934 
	C264.126801,254.760101 261.661896,253.779327 260.089355,253.155334 
z" />

</svg>