<svg xmlns="http://www.w3.org/2000/svg" viewBox="0 0 24 24"><title>Calling</title><g id="Calling"><path d="M22.1,15.06l-2.19-2.19a3.08,3.08,0,0,0-4.34,0L14.1,14.32a1.07,1.07,0,0,1-1.5,0c-4.07-4.07-4-3.3-1.47-5.89a3.07,3.07,0,0,0,0-4.34L8.94,1.9a3.07,3.07,0,0,0-4.34,0L2.41,4.09C-2.89,9.39,7.43,23,16.13,23c2.88,0,3.71-1.35,6-3.6A3.07,3.07,0,0,0,22.1,15.06ZM20.69,18,18.5,20.17c-2,2-7,.32-11-3.65s-5.65-9-3.65-11L6,3.31a1.07,1.07,0,0,1,1.51,0c3.24,3.24,3.24,2.65.73,5.17a3.06,3.06,0,0,0,0,4.33l2.93,2.93a3.13,3.13,0,0,0,4.32,0L17,14.28a1.1,1.1,0,0,1,1.51,0l2.19,2.19A1.08,1.08,0,0,1,20.69,18Z"/></g></svg>